<?xml version="1.0" encoding="utf-8"?>
<!-- Generator: Adobe Illustrator 16.0.3, SVG Export Plug-In . SVG Version: 6.00 Build 0)  -->
<!DOCTYPE svg PUBLIC "-//W3C//DTD SVG 1.1//EN" "http://www.w3.org/Graphics/SVG/1.1/DTD/svg11.dtd">
<svg version="1.1" xmlns="http://www.w3.org/2000/svg" xmlns:xlink="http://www.w3.org/1999/xlink" x="0px" y="0px" width="149px"
	 height="163px" viewBox="0 0 149 163" enable-background="new 0 0 149 163" xml:space="preserve">
<g id="Capa_1">
</g>
<g id="Capa_2_copia_2">
	<path fill-rule="evenodd" clip-rule="evenodd" fill="#FFFFFF" d="M14.982,120.848c0-7.815-0.013-15.631,0.005-23.446
		c0.011-5.081,1.814-7.017,6.885-6.988c6.08,0.033,12.175-0.435,18.24,0.397c5.062,0.696,8.896,3.147,10.888,7.946
		c2.401,5.786,2.731,11.825,1.533,17.925c-0.676,3.448-2.581,6.18-5.641,8.006c-3.517,2.099-2.547,3.306-1.717,7.333
		c0.51,2.485,2.452,3.324,5.042,2.9c2.457-0.401,3.531,1.418,3.808,3.373c0.473,3.331,0.251,6.714-0.244,10.045
		c-0.18,1.218-0.954,2.106-2.263,2.448c-4.813,1.256-10.032-0.637-13.059-4.704c-2.006-2.696-2.762-5.894-3.814-8.984
		c-0.495-1.454-1.071-2.894-1.757-4.268c-0.408-0.818-0.741-2.161-2.057-1.677c-0.972,0.357-0.836,1.476-0.819,2.396
		c0.071,3.542,0.153,7.083,0.158,10.626c0.011,4.857-1.88,6.714-6.748,6.734c-0.816,0.002-1.635,0.002-2.452,0
		c-4.493-0.006-5.953-1.438-5.975-6.073C14.955,136.839,14.984,128.842,14.982,120.848z M37.817,110.359
		c0.1-2.016-0.026-4.009-1.096-5.777c-1.125-1.859-2.865-2.428-4.909-1.891c-2.101,0.551-1.975,2.141-1.831,3.898
		c0.191,2.331,0.197,4.695,0.051,7.029c-0.104,1.649-0.229,3.205,1.682,3.761c1.946,0.568,3.77,0.3,5.055-1.54
		C37.939,114.167,37.863,112.258,37.817,110.359z"/>
	<path fill-rule="evenodd" clip-rule="evenodd" fill="#FFFFFF" d="M103.876,120.595c-0.002-4.904-0.344-9.835,0.071-14.703
		c0.772-9.06,4.193-13.216,10.811-14.902c6.044-1.539,12.275-1.583,18.16,0.912c4.733,2.008,6.566,6.239,7.458,10.997
		c1.855,9.896,0.977,19.891,1.032,29.845c0.018,3.63-1.041,7.205-2.576,10.506c-2.332,5.017-6.61,7.418-11.962,7.56
		c-4.216,0.111-8.41,0.387-12.681-0.692c-6.14-1.551-10.13-8.651-10.283-14.267C103.768,130.769,103.876,125.681,103.876,120.595z
		 M118.568,120.075c0,4.626-0.027,9.253,0.011,13.879c0.027,3.364,1.234,4.877,3.77,4.897c2.532,0.02,3.861-1.513,3.881-4.822
		c0.049-9.162,0.044-18.324,0.002-27.487c-0.013-2.752-1.382-4.067-3.97-4.093c-2.343-0.023-3.654,1.34-3.681,4.018
		C118.537,111.003,118.568,115.54,118.568,120.075z"/>
	<path fill-rule="evenodd" clip-rule="evenodd" fill="#FFFFFF" d="M102.239,39.732c0.086-5.794-0.2-11.573,0.965-17.354
		c1.403-6.961,4.955-10.622,11.93-12.407c4.788-1.226,9.334-0.812,13.948,0.333c5.718,1.418,9.837,6.69,10.139,13.657
		c0.33,7.606,0.703,15.21,1.014,22.815c0.171,4.21-0.572,8.5-1.538,12.66c-1.454,6.267-5.851,9.668-11.833,10.502
		c-4.604,0.641-9.366,0.77-14.024-0.687c-5.085-1.59-8.583-5.746-9.581-11.078C102.111,52.044,102.197,45.9,102.239,39.732z
		 M125.123,39.809c0-4.446,0.016-8.892-0.004-13.339c-0.016-3.301-1.194-4.748-3.819-4.771c-2.561-0.022-4.26,1.645-4.28,4.568
		c-0.066,9.073-0.069,18.147-0.004,27.221c0.022,2.998,1.684,4.723,4.16,4.704c2.594-0.02,3.897-1.536,3.93-4.772
		C125.152,48.883,125.119,44.346,125.123,39.809z"/>
	<path fill-rule="evenodd" clip-rule="evenodd" fill="#FFFFFF" d="M14.993,39.585c0-7.623-0.013-15.247,0.004-22.871
		c0.011-4.507,1.506-6.534,5.927-6.821c7.054-0.458,14.159-0.686,21.175,0.422c2.7,0.426,5.117,1.925,6.706,4.315
		c4.074,6.125,5.25,12.816,3.743,19.999c-0.297,1.419-0.612,2.835-0.874,4.26c-1.243,6.76-5.13,9.628-12.908,10.525
		c-1.793,0.208-3.632,0.142-5.441,0.049c-2.545-0.13-3.676,0.971-3.632,3.522c0.064,3.81,0.036,7.623,0.004,11.434
		c-0.033,4.162-1.163,5.247-5.403,5.29c-0.908,0.009-1.815,0.002-2.723,0.001c-5.11-0.01-6.561-1.471-6.574-6.713
		C14.98,55.194,14.993,47.389,14.993,39.585z M29.735,29.37c-0.011,0-0.02,0-0.029,0c0,1.267,0.038,2.536-0.009,3.801
		c-0.071,1.893,0.399,3.451,2.434,4.016c2.008,0.56,3.553-0.277,4.727-1.848c1.848-2.468,1.34-10.113-0.752-12.402
		c-1.187-1.299-2.645-1.532-4.219-1.039c-1.476,0.46-2.112,1.633-2.146,3.127C29.709,26.472,29.735,27.921,29.735,29.37z"/>
	<path fill-rule="evenodd" clip-rule="evenodd" fill="#FFFFFF" d="M87.998,118.977c0.051,4.957,0.262,9.14,1.417,13.181
		c1.201,4.194,3.107,5.541,7.474,5.68c3.446,0.109,4.69,1.378,4.771,4.864c0.191,8.4,0.18,8.587-8.057,8.104
		c-7.888-0.464-15.559-5.934-18.65-14.929c-3.508-10.207-3.683-20.465-0.135-30.714c2.978-8.605,10.811-14.433,19.919-14.85
		c6.875-0.314,6.932-0.261,6.921,6.724c-0.003,1.088,0.028,2.188-0.105,3.264c-0.208,1.679-1.067,2.48-2.94,2.415
		c-6.155-0.217-9.058,2.225-9.905,8.358C88.313,113.942,87.759,116.82,87.998,118.977z"/>
	<path fill-rule="evenodd" clip-rule="evenodd" fill="#FFFFFF" d="M100.1,64.123c0,6.026-0.271,6.445-6.293,6.023
		c-8.261-0.578-14.976-4.115-18.513-11.872c-5.68-12.455-5.986-25.145,0.18-37.526c3.002-6.033,8.455-9.334,15.054-10.532
		c1.864-0.338,3.605-1.207,5.585-1.089c2.703,0.16,3.865,1.127,3.965,3.765c0.075,1.995-0.009,3.996,0.022,5.992
		c0.031,2.292-1.129,3.212-3.351,3.319c-6.255,0.307-8.274,1.965-9.275,8.276c-1.041,6.576-0.925,13.203,0.269,19.775
		c0.295,1.618,0.99,3.131,1.919,4.483c0.881,1.281,1.962,2.372,3.688,2.475C100.1,57.619,100.1,57.625,100.1,64.123z"/>
	<path fill-rule="evenodd" clip-rule="evenodd" fill="#FFFFFF" d="M70.648,120.619c0,7.727,0.025,15.451-0.006,23.175
		c-0.022,5.492-1.684,7.114-7.14,7.116c-6.187,0.002-7.625-1.416-7.633-7.682c-0.018-15.086-0.018-30.173,0.002-45.261
		c0.009-6.808,6.295-10.268,12.297-6.775c2.188,1.273,2.46,3.479,2.467,5.708C70.664,104.807,70.646,112.713,70.648,120.619z"/>
	<path fill-rule="evenodd" clip-rule="evenodd" fill="#FFFFFF" d="M69.022,39.968c0,7.992,0.015,15.985-0.005,23.977
		c-0.013,4.902-1.38,6.166-6.159,5.821c-0.724-0.052-1.454-0.053-2.179-0.025c-4.096,0.155-6.377-1.734-6.399-5.853
		c-0.084-15.984-0.078-31.969-0.004-47.953c0.016-3.654,2.01-5.656,5.64-6.128c1.161-0.151,2.366-0.166,3.531-0.05
		c4.62,0.454,5.561,1.516,5.571,6.234C69.035,23.982,69.022,31.975,69.022,39.968z"/>
</g>
<g id="Capa_2_copia" display="none">
	<path display="inline" fill-rule="evenodd" clip-rule="evenodd" fill="#E5462C" d="M14.982,120.848
		c0-7.815-0.013-15.631,0.005-23.446c0.011-5.081,1.814-7.017,6.885-6.988c6.08,0.033,12.175-0.435,18.24,0.397
		c5.062,0.696,8.896,3.147,10.888,7.946c2.401,5.786,2.731,11.825,1.533,17.925c-0.676,3.448-2.581,6.18-5.641,8.006
		c-3.517,2.099-2.547,3.306-1.717,7.333c0.51,2.485,2.452,3.324,5.042,2.9c2.457-0.401,3.531,1.418,3.808,3.373
		c0.473,3.331,0.251,6.714-0.244,10.045c-0.18,1.218-0.954,2.106-2.263,2.448c-4.813,1.256-10.032-0.637-13.059-4.704
		c-2.006-2.696-2.762-5.894-3.814-8.984c-0.495-1.454-1.071-2.894-1.757-4.268c-0.408-0.818-0.741-2.161-2.057-1.677
		c-0.972,0.357-0.836,1.476-0.819,2.396c0.071,3.542,0.153,7.083,0.158,10.626c0.011,4.857-1.88,6.714-6.748,6.734
		c-0.816,0.002-1.635,0.002-2.452,0c-4.493-0.006-5.953-1.438-5.975-6.073C14.955,136.839,14.984,128.842,14.982,120.848z
		 M37.817,110.359c0.1-2.016-0.026-4.009-1.096-5.777c-1.125-1.859-2.865-2.428-4.909-1.891c-2.101,0.551-1.975,2.141-1.831,3.898
		c0.191,2.331,0.197,4.695,0.051,7.029c-0.104,1.649-0.229,3.205,1.682,3.761c1.946,0.568,3.77,0.3,5.055-1.54
		C37.939,114.167,37.863,112.258,37.817,110.359z"/>
	<path display="inline" fill-rule="evenodd" clip-rule="evenodd" fill="#E5462C" d="M103.876,120.595
		c-0.002-4.904-0.344-9.835,0.071-14.703c0.772-9.06,4.193-13.216,10.811-14.902c6.044-1.539,12.275-1.583,18.16,0.912
		c4.733,2.008,6.566,6.239,7.458,10.997c1.855,9.896,0.977,19.891,1.032,29.845c0.018,3.63-1.041,7.205-2.576,10.506
		c-2.332,5.017-6.61,7.418-11.962,7.56c-4.216,0.111-8.41,0.387-12.681-0.692c-6.14-1.551-10.13-8.651-10.283-14.267
		C103.768,130.769,103.876,125.681,103.876,120.595z M118.568,120.075c0,4.626-0.027,9.253,0.011,13.879
		c0.027,3.364,1.234,4.877,3.77,4.897c2.532,0.02,3.861-1.513,3.881-4.822c0.049-9.162,0.044-18.324,0.002-27.487
		c-0.013-2.752-1.382-4.067-3.97-4.093c-2.343-0.023-3.654,1.34-3.681,4.018C118.537,111.003,118.568,115.54,118.568,120.075z"/>
	<path display="inline" fill-rule="evenodd" clip-rule="evenodd" fill="#F19032" d="M102.239,39.732
		c0.086-5.794-0.2-11.573,0.965-17.354c1.403-6.961,4.955-10.622,11.93-12.407c4.788-1.226,9.334-0.812,13.948,0.333
		c5.718,1.418,9.837,6.69,10.139,13.657c0.33,7.606,0.703,15.21,1.014,22.815c0.171,4.21-0.572,8.5-1.538,12.66
		c-1.454,6.267-5.851,9.668-11.833,10.502c-4.604,0.641-9.366,0.77-14.024-0.687c-5.085-1.59-8.583-5.746-9.581-11.078
		C102.111,52.044,102.197,45.9,102.239,39.732z M125.123,39.809c0-4.446,0.016-8.892-0.004-13.339
		c-0.016-3.301-1.194-4.748-3.819-4.771c-2.561-0.022-4.26,1.645-4.28,4.568c-0.066,9.073-0.069,18.147-0.004,27.221
		c0.022,2.998,1.684,4.723,4.16,4.704c2.594-0.02,3.897-1.536,3.93-4.772C125.152,48.883,125.119,44.346,125.123,39.809z"/>
	<path display="inline" fill-rule="evenodd" clip-rule="evenodd" fill="#F19032" d="M14.993,39.585
		c0-7.623-0.013-15.247,0.004-22.871c0.011-4.507,1.506-6.534,5.927-6.821c7.054-0.458,14.159-0.686,21.175,0.422
		c2.7,0.426,5.117,1.925,6.706,4.315c4.074,6.125,5.25,12.816,3.743,19.999c-0.297,1.419-0.612,2.835-0.874,4.26
		c-1.243,6.76-5.13,9.628-12.908,10.525c-1.793,0.208-3.632,0.142-5.441,0.049c-2.545-0.13-3.676,0.971-3.632,3.522
		c0.064,3.81,0.036,7.623,0.004,11.434c-0.033,4.162-1.163,5.247-5.403,5.29c-0.908,0.009-1.815,0.002-2.723,0.001
		c-5.11-0.01-6.561-1.471-6.574-6.713C14.98,55.194,14.993,47.389,14.993,39.585z M29.735,29.37c-0.011,0-0.02,0-0.029,0
		c0,1.267,0.038,2.536-0.009,3.801c-0.071,1.893,0.399,3.451,2.434,4.016c2.008,0.56,3.553-0.277,4.727-1.848
		c1.848-2.468,1.34-10.113-0.752-12.402c-1.187-1.299-2.645-1.532-4.219-1.039c-1.476,0.46-2.112,1.633-2.146,3.127
		C29.709,26.472,29.735,27.921,29.735,29.37z"/>
	<path display="inline" fill-rule="evenodd" clip-rule="evenodd" fill="#E5462C" d="M87.998,118.977
		c0.051,4.957,0.262,9.14,1.417,13.181c1.201,4.194,3.107,5.541,7.474,5.68c3.446,0.109,4.69,1.378,4.771,4.864
		c0.191,8.4,0.18,8.587-8.057,8.104c-7.888-0.464-15.559-5.934-18.65-14.929c-3.508-10.207-3.683-20.465-0.135-30.714
		c2.978-8.605,10.811-14.433,19.919-14.85c6.875-0.314,6.932-0.261,6.921,6.724c-0.003,1.088,0.028,2.188-0.105,3.264
		c-0.208,1.679-1.067,2.48-2.94,2.415c-6.155-0.217-9.058,2.225-9.905,8.358C88.313,113.942,87.759,116.82,87.998,118.977z"/>
	<path display="inline" fill-rule="evenodd" clip-rule="evenodd" fill="#F19032" d="M100.1,64.123c0,6.026-0.271,6.445-6.293,6.023
		c-8.261-0.578-14.976-4.115-18.513-11.872c-5.68-12.455-5.986-25.145,0.18-37.526c3.002-6.033,8.455-9.334,15.054-10.532
		c1.864-0.338,3.605-1.207,5.585-1.089c2.703,0.16,3.865,1.127,3.965,3.765c0.075,1.995-0.009,3.996,0.022,5.992
		c0.031,2.292-1.129,3.212-3.351,3.319c-6.255,0.307-8.274,1.965-9.275,8.276c-1.041,6.576-0.925,13.203,0.269,19.775
		c0.295,1.618,0.99,3.131,1.919,4.483c0.881,1.281,1.962,2.372,3.688,2.475C100.1,57.619,100.1,57.625,100.1,64.123z"/>
	<path display="inline" fill-rule="evenodd" clip-rule="evenodd" fill="#E5462C" d="M70.648,120.619
		c0,7.727,0.025,15.451-0.006,23.175c-0.022,5.492-1.684,7.114-7.14,7.116c-6.187,0.002-7.625-1.416-7.633-7.682
		c-0.018-15.086-0.018-30.173,0.002-45.261c0.009-6.808,6.295-10.268,12.297-6.775c2.188,1.273,2.46,3.479,2.467,5.708
		C70.664,104.807,70.646,112.713,70.648,120.619z"/>
	<path display="inline" fill-rule="evenodd" clip-rule="evenodd" fill="#F19032" d="M69.022,39.968
		c0,7.992,0.015,15.985-0.005,23.977c-0.013,4.902-1.38,6.166-6.159,5.821c-0.724-0.052-1.454-0.053-2.179-0.025
		c-4.096,0.155-6.377-1.734-6.399-5.853c-0.084-15.984-0.078-31.969-0.004-47.953c0.016-3.654,2.01-5.656,5.64-6.128
		c1.161-0.151,2.366-0.166,3.531-0.05c4.62,0.454,5.561,1.516,5.571,6.234C69.035,23.982,69.022,31.975,69.022,39.968z"/>
</g>
</svg>
